inDegrees=no
num_controls=7
num_derivatives=13
num_iterations=97
num_multipliers=7
num_parameters=0
num_slacks=7
num_states=26
objective=0.330615
objective_accelerations=0.041857
objective_balance=0.001418
objective_effort=0.030916
objective_height=0.254782
objective_ligament=0.001642
solver_duration=1205.675217
status=Solve_Succeeded
success=true
DataType=double
version=3
OpenSimVersion=4.5
endheader
time	/jointset/ground_pelvis/pelvis_tilt/value	/jointset/ground_pelvis/pelvis_tx/value	/jointset/ground_pelvis/pelvis_ty/value	/jointset/hip_r/hip_flexion_r/value	/jointset/hip_r/hip_adduction_r/value	/jointset/hip_r/hip_rotation_r/value	/jointset/back/lumbar_extension/value	/jointset/patellofemoral_r/patellar_flexion_r/value	/jointset/knee_r/knee_flexion_r/value	/jointset/knee_r/knee_adduction_r/value	/jointset/knee_r/knee_rotation_r/value	/jointset/ankle_r/ankle_angle_r/value	/jointset/subtalar_r/subtalar_angle_r/value	/jointset/ground_pelvis/pelvis_tilt/speed	/jointset/ground_pelvis/pelvis_tx/speed	/jointset/ground_pelvis/pelvis_ty/speed	/jointset/hip_r/hip_flexion_r/speed	/jointset/hip_r/hip_adduction_r/speed	/jointset/hip_r/hip_rotation_r/speed	/jointset/back/lumbar_extension/speed	/jointset/patellofemoral_r/patellar_flexion_r/speed	/jointset/knee_r/knee_flexion_r/speed	/jointset/knee_r/knee_adduction_r/speed	/jointset/knee_r/knee_rotation_r/speed	/jointset/ankle_r/ankle_angle_r/speed	/jointset/subtalar_r/subtalar_angle_r/speed	/forceset/tau_hip_flexion_r	/forceset/tau_hip_adduction_r	/forceset/tau_hip_rotation_r	/forceset/tau_knee_flexion_r	/forceset/tau_ankle_angle_r	/forceset/tau_subtalar_angle_r	/forceset/tau_lumbar_extension	lambda_cid13_p0	lambda_cid14_p0	lambda_cid14_p1	lambda_cid14_p2	lambda_cid14_p3	lambda_cid14_p4	lambda_cid14_p5	/jointset/ground_pelvis/pelvis_tilt/accel	/jointset/ground_pelvis/pelvis_tx/accel	/jointset/ground_pelvis/pelvis_ty/accel	/jointset/hip_r/hip_flexion_r/accel	/jointset/hip_r/hip_adduction_r/accel	/jointset/hip_r/hip_rotation_r/accel	/jointset/back/lumbar_extension/accel	/jointset/patellofemoral_r/patellar_flexion_r/accel	/jointset/knee_r/knee_flexion_r/accel	/jointset/knee_r/knee_adduction_r/accel	/jointset/knee_r/knee_rotation_r/accel	/jointset/ankle_r/ankle_angle_r/accel	/jointset/subtalar_r/subtalar_angle_r/accel	gamma_cid13_p0	gamma_cid14_p0	gamma_cid14_p1	gamma_cid14_p2	gamma_cid14_p3	gamma_cid14_p4	gamma_cid14_p5
1	-0.3350405254839549	-0.02197402606810987	0.5755194538188172	1.662546514837155	-0.2438554170538739	0.05716261850416582	-0.7853774703295688	1.650583718698599	1.650583718698647	-0.06126928680604589	0.1744842019092928	0.436210608601583	0.1617121525171744	0.0734822613699072	0.004404037356453648	0.01592730832320774	-0.1029049667957112	-0.001826079650767194	-0.006875070868172978	-0.0004301930428490181	-0.01544604174187701	-0.01544604174187831	-0.0007527102495164936	-4.91853310367986e-05	0.01403416260315386	0.00362305337162419	-0.4019501813369501	0.02439829637102551	0.02421238820796666	-0.4622303921292202	-0.03735958892158961	-0.01108019236557399	0.3962678844648235	-0.03902544049965273	-66.0819848895385	-19.78035625883829	7.456513239522457	9.125522497559807	-789.4246155355016	62.05966774024421	1.431396354093329	0.1312752887897405	2.155385401532595	-6.380328252930835	-0.04974342295392209	-1.122073933242491	-0.03971273523561945	-5.488666552554324	-5.488666552554332	0.6737953621340373	0.009499716407762558	-0.8092989470291716	-0.4631711408297989	6.311157037302258e-10	-2.57833105079629e-10	-2.706479448879352e-09	8.699124657602064e-09	8.889991800684796e-11	-4.62207735247802e-09	-7.568646755967425e-09
1.01	-0.3342347734568513	-0.02192334568561739	0.5757863336381223	1.661199261737808	-0.2438759137533871	0.05703862198125231	-0.7853827918625508	1.650155164140947	1.650155164140988	-0.06124268816488312	0.1744835599929413	0.4363106733341093	0.1617257631125842	0.08767164220744529	0.005744207399224021	0.03744390031950849	-0.1665488968446424	-0.002273868275012864	-0.01792036981155858	-0.0006133399925127527	-0.07025071101242314	-0.07025071101243502	0.006071717152708336	-7.802681885191847e-05	0.005994157546979402	-0.0008947125286437607	-0.4013996860145049	0.024357647741672	0.02425257059618301	-0.4626171927668031	-0.03660527080605819	-0.01111703180143274	0.396086448994847	-0.03902446086971018	-65.82594335350215	-19.7647159215324	7.469087499408138	8.798915557279006	-789.2860970714299	62.09885003976878	1.413233642614355	0.1372122347338793	2.149081140845001	-6.35691209985617	-0.04238446075732693	-1.095178796461122	-0.004499640556192621	-5.474243621242597	-5.474243621244188	0.6866590094569079	-0.00889577983010674	-0.7990456662082217	-0.4451415535238198	1.60646079369e-09	1.188539101419728e-09	1.411491637099386e-08	1.872637846169704e-08	-4.284271247091129e-09	-8.337819191654332e-09	1.732823493672027e-08
1.02	-0.3332870226825675	-0.02185889872815466	0.5762682363858235	1.659215471994176	-0.2439009059148633	0.05680428828459663	-0.7853893216581421	1.649178987589202	1.649178987589236	-0.06114786673366505	0.1744826657220244	0.4363307991396905	0.1616943836012112	0.1018820108061988	0.007157352350501332	0.05893189400245772	-0.2302122956528506	-0.002725172043156763	-0.02894250561792568	-0.0006718455711503463	-0.1249704405604836	-0.124970440560506	0.01289184776254199	-9.96562448252409e-05	-0.001953622761062038	-0.005374967984853106	-0.4008491906920525	0.02431699911232367	0.02429275298439596	-0.4630039934043861	-0.03585095269052618	-0.01115387123728126	0.3959050135248778	-0.03902903961480268	-65.57544801513023	-19.74822293184973	7.479442450699755	8.474759036304054	-789.2524465119629	62.13219853072182	1.435593906336461	0.1458702704910657	2.149665738862281	-6.38422200478619	-0.05044645173355126	-1.117441305838787	-0.01478446103017801	-5.471678608057231	-5.471678608057226	0.6729360036557993	0.01094212877611438	-0.7908539974027018	-0.4556690520181115	2.892202522886597e-09	2.355732686452976e-09	3.127595230975904e-08	2.803046848310868e-08	-7.68520386645539e-09	-1.302593524871802e-08	4.49368373569692e-08
1.03	-0.3321970771798776	-0.02178003992515487	0.5769648711434959	1.656595107637078	-0.243930377725642	0.05645984981069351	-0.7853954491675612	1.647655775368654	1.647655775368682	-0.06098483567717215	0.1744815806502471	0.4362714810944166	0.1616182855128273	0.1161099685107778	0.008618231130196136	0.08039006387767994	-0.2938496688178725	-0.003164737451424141	-0.03993923319163056	-0.0004973594430362838	-0.1796844144530845	-0.1796844144530949	0.01971884325171156	-0.0001173394669690258	-0.009936992590734241	-0.009848755717862527	-0.400821584382351	0.02445106839577869	0.02431184989624105	-0.4626831393378055	-0.03634537051821408	-0.01107019801141185	0.3961351883842523	-0.03905726394468915	-65.73187066990576	-19.72214755806723	7.455725054986247	8.625407621214199	-789.3230147964459	62.13284868820669	1.416828746509281	0.1467678780384129	2.143139990433295	-6.351858946213006	-0.04003819667717928	-1.089896472585054	0.04200968150123858	-5.473119259493405	-5.47311925949164	0.6882553854988396	-0.008109687258340572	-0.8061308010136952	-0.4438373668868177	4.18111156472847e-09	3.520077510042691e-09	4.844045396402311e-08	3.732717928224804e-08	-1.107621568433257e-08	-1.772397349167853e-08	7.257311039688713e-08
